P2
51 73
256
105
90
105
94
96
87
93
94
100
83
94
90
93
99
96
106
92
109
98
93
103
108
108
89
101
122
97
99
94
90
80
82
91
83
87
84
78
80
91
87
94
84
81
80
78
68
70
71
70
67
67
99
101
83
89
90
88
80
88
98
89
110
91
92
97
104
111
115
114
103
113
115
126
101
112
110
112
123
126
114
107
89
97
105
84
93
84
87
92
91
85
105
93
85
86
78
73
73
69
77
69
69
108
95
93
96
91
81
84
90
93
101
115
95
106
102
102
104
112
112
114
126
138
143
122
135
130
145
133
126
127
122
107
120
88
87
80
77
81
79
80
76
83
87
84
78
78
84
77
71
77
69
69
104
107
111
94
97
98
93
87
85
101
109
99
101
99
101
104
117
115
120
116
145
75
21
24
24
23
17
17
44
138
125
111
104
103
75
82
84
89
78
84
88
83
82
82
89
98
88
76
74
79
79
107
111
117
96
91
102
96
91
106
96
99
104
105
95
98
125
117
127
128
99
22
21
30
21
20
17
20
19
16
17
67
133
111
110
90
96
96
102
97
96
113
105
102
107
98
102
85
80
83
79
79
114
98
107
113
98
113
98
108
124
114
114
97
103
95
109
122
125
136
116
29
24
20
24
20
17
19
19
19
16
17
17
45
141
140
110
103
99
98
95
112
119
107
99
113
99
95
102
96
101
78
78
140
134
138
121
116
115
97
114
119
119
127
122
120
104
121
131
150
143
20
20
42
80
98
64
44
21
18
16
20
16
15
19
92
140
117
106
117
116
118
119
116
101
109
96
106
104
104
113
112
94
94
124
157
131
109
141
125
119
131
139
127
130
135
122
122
136
139
142
61
38
73
193
216
223
163
118
70
35
28
21
21
14
17
20
147
144
122
129
125
130
135
124
106
107
101
92
113
110
108
122
94
94
131
136
128
135
144
149
157
137
150
137
146
138
141
127
130
148
146
20
80
225
237
254
251
238
203
126
58
34
29
19
15
19
19
55
148
117
110
120
132
140
130
116
122
125
104
109
126
119
121
95
95
153
163
157
161
193
159
180
153
164
144
162
156
149
139
144
136
36
22
106
202
225
230
233
228
181
101
65
46
30
24
14
19
19
15
140
93
91
108
134
154
133
122
122
135
133
133
141
135
131
110
110
145
154
151
152
152
172
192
191
196
183
160
167
154
142
161
98
22
30
116
188
201
192
209
213
150
111
80
65
51
28
20
20
17
16
64
74
72
68
103
79
123
128
127
137
140
144
145
140
122
101
101
91
90
89
108
158
189
113
112
192
205
169
192
187
206
209
46
20
48
136
196
202
209
215
223
195
159
132
90
57
28
19
19
15
17
49
44
62
56
74
83
78
147
141
148
143
139
145
142
108
83
83
79
68
84
87
106
111
115
76
94
72
195
196
208
220
211
31
21
36
135
90
141
194
162
53
61
77
70
54
44
30
17
17
19
17
39
34
58
66
59
70
56
68
143
143
145
144
139
109
82
68
68
73
71
93
72
94
76
68
53
56
71
68
162
185
147
141
27
20
22
36
75
40
150
51
23
60
40
21
20
36
31
20
16
19
16
21
34
40
40
54
58
45
71
143
130
130
132
112
103
112
64
64
71
78
76
89
77
64
74
53
52
72
68
145
79
112
125
21
20
45
76
123
71
155
38
73
130
69
62
115
60
32
18
19
19
19
19
35
36
32
39
41
40
43
132
131
116
114
88
104
84
65
65
78
82
76
81
70
74
71
51
45
49
63
88
56
52
75
21
20
70
201
159
167
189
53
148
191
215
184
116
57
28
18
20
15
17
16
30
34
45
58
43
34
45
72
127
109
104
105
86
79
72
72
52
78
79
75
55
65
46
53
43
41
44
38
56
42
29
23
21
45
176
212
194
216
66
144
197
214
147
73
49
28
18
20
16
17
16
76
67
63
60
56
45
46
52
73
85
90
95
97
84
73
73
33
71
61
61
49
70
63
56
43
48
46
45
49
43
21
20
21
22
151
193
115
192
69
129
165
162
112
56
36
28
20
18
17
19
16
30
36
51
54
46
58
79
83
124
116
73
64
61
123
68
68
36
57
67
59
53
57
57
62
48
56
46
43
50
42
21
18
18
17
90
130
76
75
25
65
162
123
68
45
34
32
21
16
15
20
16
33
38
35
31
38
34
37
53
60
60
49
46
40
47
48
48
36
35
69
63
60
51
57
63
47
52
49
50
50
45
21
21
21
19
68
92
198
67
51
75
68
77
62
46
36
30
20
19
16
19
17
34
41
46
39
41
40
39
45
43
47
59
54
71
58
45
45
34
45
69
61
52
58
59
58
53
53
49
50
42
40
25
21
24
15
48
109
109
67
41
44
88
87
62
50
35
25
17
20
16
14
20
21
40
38
44
41
40
50
62
72
67
59
56
37
46
39
39
32
50
66
63
56
60
59
46
47
44
40
45
47
47
27
21
20
18
17
68
150
60
39
64
84
70
48
44
30
26
20
21
20
15
19
21
49
41
53
47
44
48
47
47
45
33
36
48
48
47
47
34
36
45
60
60
57
54
50
44
54
61
62
68
67
31
23
18
18
15
21
88
213
161
87
71
48
38
36
30
26
18
21
17
18
16
17
57
51
56
52
42
44
59
52
56
51
57
60
66
43
43
33
25
28
48
54
52
54
43
50
50
49
54
63
60
53
18
21
20
20
17
20
71
71
52
41
38
32
29
30
30
19
19
18
21
18
16
47
54
51
53
49
58
53
54
54
44
49
58
62
36
36
27
35
29
29
53
53
48
41
50
50
54
56
65
73
70
21
18
20
18
17
14
15
25
30
27
25
32
26
36
33
21
16
16
21
20
18
37
37
40
38
34
37
36
39
30
24
38
45
49
49
49
28
27
29
27
53
54
54
54
54
61
71
81
88
72
75
21
21
20
19
17
16
16
60
34
33
32
34
35
42
31
20
19
18
21
18
18
34
36
35
34
38
36
47
35
30
32
31
40
44
63
63
57
51
36
50
61
66
72
66
70
73
77
76
85
73
73
52
20
20
21
16
19
16
45
64
51
37
39
48
55
37
21
21
20
16
18
20
39
60
72
72
70
66
86
63
64
71
92
64
59
76
76
65
65
66
65
72
71
41
45
42
35
83
69
74
72
44
39
22
21
21
20
20
18
31
74
70
53
56
67
71
56
22
23
18
20
21
16
18
23
21
23
42
57
35
79
81
60
52
45
41
37
37
70
71
69
69
71
60
51
38
37
42
38
42
37
40
32
29
24
21
19
20
23
49
69
84
78
75
78
85
90
73
29
21
20
21
20
19
15
22
23
22
27
24
21
34
76
57
44
56
46
37
37
68
71
56
51
52
53
46
40
42
44
37
40
39
39
31
24
22
23
21
43
64
92
132
132
110
111
126
126
117
102
37
20
18
20
18
20
15
18
47
58
78
98
106
85
63
36
39
44
42
35
35
49
45
45
43
49
50
50
57
56
38
36
43
36
39
25
21
22
18
29
89
125
152
158
157
139
147
160
152
122
82
42
23
22
21
18
21
16
20
18
26
29
130
77
50
47
47
49
46
47
37
37
52
49
40
58
42
48
60
59
43
40
36
44
35
40
25
22
20
28
62
140
157
172
174
174
159
157
169
157
132
84
56
28
18
17
19
18
16
20
19
29
33
66
88
82
75
70
59
70
45
36
36
53
51
44
43
68
66
64
56
44
37
38
46
47
35
23
21
29
33
100
163
177
179
173
175
167
163
164
149
131
82
25
26
20
17
18
16
22
21
20
15
21
30
45
79
73
55
61
75
66
58
58
45
52
39
40
44
81
79
66
62
39
43
49
32
23
21
20
40
37
159
165
180
177
171
173
171
168
161
147
125
79
27
22
20
20
21
22
37
35
21
14
14
14
21
24
36
80
49
109
115
68
68
44
49
40
38
34
31
47
70
59
45
49
30
26
20
21
28
76
110
163
171
175
175
171
180
173
168
165
155
125
83
30
21
22
36
27
65
61
36
21
14
15
16
13
21
24
21
34
33
53
44
44
38
42
43
37
32
31
25
35
34
76
42
21
18
20
17
28
114
173
179
167
153
148
173
182
182
175
173
163
123
67
29
22
52
63
21
16
15
14
12
12
14
19
13
13
20
21
20
20
88
78
78
40
38
40
39
38
32
34
37
63
63
17
20
21
16
23
22
45
151
176
161
107
162
182
187
188
182
171
159
129
49
24
23
15
14
13
12
13
13
12
13
11
11
12
12
21
20
20
21
27
25
25
43
37
36
51
38
36
41
37
32
18
17
18
20
15
25
39
29
34
43
73
105
184
184
183
188
181
158
130
29
20
15
13
13
12
8
11
13
11
12
12
11
13
9
13
18
27
28
26
27
25
25
35
37
44
36
28
35
30
25
15
16
20
16
14
21
37
36
39
44
25
28
27
25
33
63
105
126
64
23
22
17
14
13
11
10
11
14
13
13
13
12
11
12
12
12
17
20
27
26
26
30
30
35
39
44
40
41
59
68
65
14
16
16
14
15
31
32
40
27
39
32
36
40
31
29
29
23
23
18
20
19
14
9
12
9
14
19
12
16
14
12
11
12
11
12
13
17
16
18
17
20
26
26
25
30
29
32
33
31
29
25
16
16
15
16
20
25
25
35
29
24
30
38
40
31
34
32
20
19
20
19
13
9
12
13
13
16
16
13
18
21
18
16
14
16
14
10
13
16
29
26
24
18
18
22
25
26
24
28
26
24
22
15
16
14
16
17
23
23
26
29
21
23
32
33
25
28
21
21
21
17
15
12
12
14
14
16
16
16
19
22
21
20
18
16
14
10
8
8
11
21
40
41
19
19
26
40
32
27
25
31
26
20
15
15
14
18
17
20
22
21
21
16
22
18
21
26
18
18
17
20
13
12
11
9
10
13
11
13
17
19
23
19
21
21
18
6
7
11
11
9
14
21
26
20
20
36
56
57
47
45
48
30
16
15
19
18
18
17
17
20
19
20
18
18
18
18
18
15
17
21
14
14
11
12
12
11
14
9
12
16
20
21
20
19
12
9
8
9
9
13
11
11
28
31
21
21
56
61
58
55
61
51
21
15
15
17
16
14
17
15
21
18
20
18
20
16
16
14
19
17
15
16
14
13
12
14
12
11
11
14
16
20
19
16
6
8
8
8
8
5
11
8
10
24
36
33
33
41
44
39
35
44
31
16
15
21
18
13
16
19
19
19
17
14
19
18
18
19
16
17
14
17
13
13
14
12
10
13
8
11
16
16
14
13
11
9
6
8
5
11
9
13
8
8
15
27
21
21
25
29
28
26
22
15
16
19
14
16
19
19
19
17
17
16
18
16
16
14
13
12
14
18
15
12
13
12
9
11
12
10
11
16
12
10
5
11
7
5
4
3
5
5
10
6
6
13
19
20
20
28
28
24
28
19
15
19
19
21
19
14
16
16
19
15
15
16
15
12
13
13
12
13
13
12
12
13
11
11
9
8
7
11
15
6
1
5
8
5
7
4
3
9
5
11
5
8
14
21
20
20
26
30
21
14
17
19
19
19
17
17
14
15
17
17
15
15
15
15
11
12
12
19
16
11
12
12
13
11
11
10
6
7
13
12
4
4
8
7
6
11
11
4
10
7
5
4
9
10
20
21
21
29
24
15
15
21
18
16
14
16
18
17
15
15
17
16
17
15
15
13
14
14
14
12
12
12
12
11
8
7
10
8
7
12
7
4
0
7
8
3
4
6
4
5
5
7
3
5
11
16
20
20
31
17
15
18
17
17
19
15
20
16
16
15
18
15
16
18
17
15
14
19
14
12
13
13
14
11
12
10
11
9
7
11
6
6
3
2
5
8
5
6
2
2
3
1
1
3
9
11
15
21
21
26
15
13
19
16
17
23
18
18
20
17
15
18
15
15
15
13
14
14
14
13
12
14
13
14
12
12
12
9
8
10
13
5
7
7
6
6
6
3
6
4
4
5
2
0
7
13
12
14
24
24
21
19
17
19
21
24
29
23
15
20
29
20
16
15
16
19
21
20
18
15
15
12
11
12
11
8
11
13
10
7
9
9
5
8
8
11
14
11
10
7
7
4
3
2
3
10
10
6
12
17
17
21
19
19
19
25
21
24
26
28
34
26
22
20
17
16
15
17
17
14
16
13
9
9
9
12
13
13
12
13
10
8
6
7
10
9
9
11
10
11
10
11
7
5
4
5
9
8
11
9
18
18
16
18
19
21
22
31
37
25
21
32
35
45
23
64
92
91
61
28
11
12
9
9
10
11
14
12
14
12
11
11
12
11
9
9
11
10
11
12
11
8
7
9
6
8
10
8
9
10
11
14
14
20
20
16
18
16
29
21
21
32
33
23
20
35
91
95
94
89
70
61
53
32
11
12
12
12
10
12
11
11
10
12
12
10
12
10
13
12
13
11
11
8
9
9
6
10
7
10
11
12
15
15
16
14
15
16
18
26
21
24
18
18
20
22
61
74
86
82
90
81
70
62
66
43
11
7
11
10
12
10
11
9
12
13
12
12
12
12
14
13
15
11
12
13
8
9
13
8
13
9
9
15
15
14
15
17
16
19
15
21
18
20
21
18
21
54
63
65
61
73
73
75
67
65
63
61
39
23
7
11
9
10
11
11
13
12
13
12
11
12
12
13
10
11
12
11
10
5
11
9
10
10
14
14
16
16
17
19
16
17
14
15
21
15
15
21
22
30
30
43
60
66
66
70
70
70
68
78
67
21
15
10
10
9
12
14
26
33
28
15
19
13
12
11
12
11
11
11
4
5
8
7
10
13
13
14
15
15
16
12
16
16
18
19
20
17
19
15
18
17
39
49
51
63
59
59
60
31
54
81
67
24
32
24
36
23
37
20
24
21
19
18
20
10
6
13
12
10
9
11
11
11
9
11
11
11
15
13
15
17
13
15
18
19
18
17
17
17
17
48
51
30
39
43
48
48
50
59
63
18
21
49
38
25
25
20
27
22
18
27
32
24
18
18
14
9
11
13
12
10
7
12
13
9
10
12
12
15
15
14
18
14
18
19
15
17
19
19
55
42
47
70
40
30
35
39
53
58
20
55
66
21
18
30
37
24
23
22
26
26
20
17
26
20
14
19
12
12
15
14
13
11
11
9
10
12
12
12
15
16
19
17
15
18
19
16
16
18
28
25
32
65
66
68
35
23
35
33
50
70
20
45
55
20
18
21
32
20
16
21
26
28
23
20
21
17
16
13
12
15
18
13
13
12
12
11
11
12
12
14
14
18
18
15
19
19
16
19
19
30
24
57
33
66
60
44
28
22
23
20
45
66
20
26
45
21
17
16
17
18
19
18
24
22
22
17
16
18
13
13
16
15
15
14
14
13
13
13
13
13
14
14
15
15
15
19
19
17
16
18
28
38
25
45
58
56
32
26
21
21
28
22
30
28
17
21
38
20
16
19
15
15
13
15
17
14
15
17
14
15
13
14
12
12
14
11
14
14
15
14
14
13
14
16
18
17
19
17
16
19
18
19
23
27
36
51
27
20
18
16
15
17
17
16
16
20
15
20
18
17
14
19
17
17
19
15
15
20
20
15
14
14
17
12
12
11
9
12
15
14
14
14
14
14
14
16
19
19
18
15
18
17
19
18
29
47
24
16
16
16
14
19
14
16
15
17
18
15
19
13
13
16
16
15
16
17
19
18
17
18
14
14
13
14
14
13
11
9
15
14
14
14
14
18
14
15
18
18
17
18
14
19
16
17
14
19
28
19
18
17
16
15
17
18
18
15
15
19
15
17
13
14
14
14
13
13
17
15
15
18
19
18
19
12
13
11
10
12
10
12
12
13
12
12
14
14
15
20
17
17
17
16
19
16
14
15
20
26
15
17
18
16
19
17
17
17
18
17
19
14
14
14
14
15
14
13
13
16
15
19
19
19
14
19
12
11
8
8
11
10
8
11
12
11
11
14
18
17
18
15
16
16
13
15
14
12
13
18
15
19
14
15
16
17
19
18
17
15
15
14
14
14
13
12
11
13
11
12
13
13
15
20
17
17
15
18
13
9
6
11
10
4
7
10
11
11
19
16
12
14
11
11
8
5
9
9
10
11
14
10
12
12
11
14
14
13
12
9
9
12
12
10
14
13
12
11
11
11
11
12
13
10
12
14
20
12
13
11
6
3
2
4
2
2
2
11
11
13
12
9
12
8
6
4
4
5
7
10
6
10
5
6
7
9
10
12
11
9
6
9
9
8
7
10
11
9
6
10
11
7
9
8
6
10
11
12
10
8
2
3
3
2
0
1
1
0
11
11
13
12
9
12
8
6
4
4
5
7
10
6
10
5
6
7
9
10
12
11
9
6
9
9
8
7
10
11
9
6
10
11
7
9
8
6
10
11
12
10
8
2
3
3
2
0
1
1
0
11
11
