P2
63 91
256
99
97
97
101
93
91
90
80
91
95
94
87
85
84
87
97
92
97
96
106
93
92
98
94
97
99
93
104
102
89
89
107
112
96
95
88
87
82
78
80
91
87
87
81
80
77
74
77
82
85
84
81
76
84
87
74
74
65
70
70
73
70
69
103
96
89
93
101
100
95
84
84
93
91
97
101
102
90
102
99
105
96
105
102
109
110
93
104
108
120
117
106
121
126
141
126
127
132
116
98
89
87
87
91
83
87
86
84
89
92
90
92
88
95
87
82
82
81
77
71
73
73
70
70
73
71
105
104
92
88
92
91
97
81
86
94
94
95
117
113
92
89
94
101
110
114
127
117
101
110
126
117
134
125
107
132
132
142
128
118
123
118
117
98
104
100
102
83
84
84
100
83
85
88
83
82
100
96
89
82
80
76
81
76
72
72
79
75
73
106
109
95
100
92
94
90
81
83
95
96
106
106
107
95
106
101
106
108
109
124
123
130
117
126
139
136
140
130
124
107
100
105
110
123
146
128
121
98
111
89
90
97
75
81
80
83
84
84
79
85
88
85
84
81
76
81
84
75
72
77
73
69
107
111
104
113
94
94
109
93
88
87
85
93
109
109
99
108
106
99
99
104
117
114
117
112
116
144
132
39
21
24
24
23
20
20
17
28
113
132
122
111
110
97
105
76
82
88
94
85
77
84
90
93
90
81
82
84
89
88
83
76
77
84
79
107
115
114
113
100
93
105
109
89
91
91
93
99
112
101
96
106
117
106
124
110
128
132
120
114
54
21
24
26
21
20
19
19
19
20
17
15
20
126
128
99
105
104
87
91
91
91
98
92
89
115
112
90
103
90
83
96
96
88
84
80
87
78
104
101
111
112
107
92
112
115
102
99
111
108
109
111
107
95
96
99
115
116
124
125
135
126
31
22
21
29
24
19
19
20
15
18
19
16
17
16
17
126
140
132
107
104
102
95
102
115
112
105
128
120
99
109
110
92
86
96
91
95
96
87
76
119
112
120
117
114
112
115
111
94
113
120
114
131
121
104
111
99
101
120
113
126
138
137
22
22
20
21
37
21
18
17
17
16
16
16
16
17
17
17
17
144
148
136
109
112
103
107
90
86
127
118
110
96
123
104
103
91
106
103
94
104
87
78
142
154
140
115
133
124
123
109
105
116
123
130
141
134
122
122
117
124
130
134
151
154
75
20
29
71
107
126
109
80
67
47
29
20
17
18
20
15
17
19
18
148
134
125
114
120
122
119
125
122
124
104
107
111
93
120
92
91
111
116
112
99
94
131
143
133
121
109
141
137
122
124
131
130
135
130
132
135
115
127
125
137
139
136
133
24
55
73
183
216
230
213
163
126
88
57
32
28
21
21
18
14
17
19
84
145
138
122
126
119
139
136
135
126
124
113
117
101
91
100
98
105
108
121
114
94
152
145
128
122
128
130
150
139
142
134
147
131
155
150
128
136
137
135
141
147
149
58
28
97
222
234
248
252
246
234
212
158
92
48
31
27
20
17
15
19
18
18
143
146
114
108
110
131
127
141
130
118
114
129
118
108
110
110
118
109
128
108
98
155
164
142
140
162
164
164
145
155
154
139
142
136
145
143
150
147
127
118
150
118
20
41
118
211
231
242
244
243
234
208
149
87
55
43
29
28
18
17
19
17
15
123
148
95
88
130
138
144
142
142
110
116
122
134
121
128
125
136
125
118
120
110
152
194
148
160
154
195
192
184
184
162
161
163
164
159
157
150
144
140
154
116
41
18
50
132
196
214
210
215
221
216
172
116
81
67
51
37
27
21
18
19
17
15
21
80
83
86
118
90
124
141
147
135
127
129
119
128
143
141
142
133
137
111
100
146
153
141
132
136
152
159
197
204
157
201
193
190
164
189
152
139
161
189
73
21
20
66
136
188
202
196
191
216
217
172
126
110
86
70
57
30
23
18
18
18
15
18
60
69
72
72
69
118
71
138
108
132
141
141
140
144
142
146
141
134
103
106
96
80
99
89
108
181
189
201
125
112
151
195
208
165
192
183
200
208
199
46
21
18
81
151
196
202
204
209
219
223
202
167
149
129
90
63
34
27
19
19
16
14
16
53
44
63
58
67
75
83
109
99
141
141
148
138
141
127
153
142
119
110
83
77
70
82
89
76
105
126
118
114
83
99
104
155
209
207
210
215
225
210
36
20
19
73
137
129
148
198
205
159
67
73
96
106
82
62
51
35
31
19
19
18
16
19
52
34
55
70
65
54
74
72
78
110
143
142
139
142
140
130
117
80
81
71
69
69
72
88
88
90
95
77
77
67
68
64
70
79
181
191
181
162
120
27
22
20
53
49
46
40
159
162
47
24
45
72
29
25
25
31
32
28
19
18
19
19
17
36
38
38
39
54
53
55
50
68
73
143
146
133
141
145
132
118
101
79
56
76
70
87
79
76
80
74
69
56
54
50
59
70
55
178
196
148
146
109
25
21
18
27
32
18
21
76
135
32
34
71
17
16
18
33
54
35
28
20
19
17
19
17
26
34
35
42
52
43
63
32
47
68
153
136
124
124
106
102
92
95
73
69
69
72
83
82
90
79
74
69
71
46
54
51
66
146
139
95
64
86
123
21
21
18
92
84
92
58
86
130
34
70
91
70
49
76
130
72
37
23
16
18
17
18
18
26
35
35
39
40
37
41
43
50
72
142
138
111
110
105
94
96
86
73
65
86
77
84
78
81
70
69
64
58
51
46
49
55
72
88
56
66
56
45
21
21
18
157
205
159
163
158
113
50
148
183
219
207
157
116
68
28
21
18
20
16
16
20
20
30
35
37
51
58
43
37
39
58
102
127
120
91
92
99
86
82
77
72
53
73
75
78
75
65
60
64
49
46
49
39
50
49
42
52
59
48
29
27
21
20
111
191
212
205
195
115
65
153
197
215
200
137
78
58
31
24
18
20
19
16
18
18
59
44
37
46
42
46
34
36
47
63
95
97
91
98
112
94
90
83
75
35
68
69
60
67
53
60
59
56
55
43
41
43
42
34
46
47
42
22
21
21
20
82
189
196
155
198
113
70
136
181
192
163
111
66
44
33
24
18
18
19
17
17
18
53
47
86
92
78
85
92
107
99
109
107
116
115
107
79
83
95
100
80
35
56
69
60
63
51
58
71
61
59
48
44
46
45
49
46
44
36
21
20
21
17
58
142
172
109
217
123
72
111
158
164
124
74
51
34
31
26
17
17
15
20
19
17
30
30
41
44
37
32
36
35
56
71
84
82
65
49
52
45
71
60
47
35
35
75
67
56
59
56
54
59
63
57
57
53
45
43
50
45
36
22
18
17
19
36
93
130
193
60
33
27
64
172
138
80
63
43
34
31
29
20
16
17
16
18
16
28
32
34
35
33
38
29
41
37
54
55
55
62
62
52
45
46
47
49
35
33
63
64
63
63
55
52
57
63
51
50
52
52
50
49
48
40
21
21
22
17
23
76
92
192
178
44
53
75
73
75
76
56
46
38
32
25
19
19
16
19
18
17
34
37
45
41
38
41
35
33
35
41
43
49
51
57
53
71
62
51
45
34
34
55
65
60
55
52
53
51
57
57
48
54
56
50
47
43
41
22
21
22
20
19
71
91
36
44
54
35
33
68
90
84
60
49
36
29
21
16
20
18
15
15
18
22
37
43
38
39
47
37
40
46
64
66
71
68
62
57
36
35
38
41
33
39
63
63
63
62
58
59
54
46
42
48
49
44
43
49
49
49
24
21
22
20
16
32
96
191
101
72
58
67
87
87
70
55
46
33
28
21
20
21
19
17
17
19
20
38
46
47
50
45
48
51
51
63
61
64
53
36
33
44
55
41
44
30
40
39
55
57
50
53
48
51
44
47
45
46
46
45
47
47
51
24
21
20
19
19
15
40
115
152
116
87
89
82
76
49
42
40
32
26
22
19
21
18
16
16
19
20
49
41
52
60
60
46
39
46
47
41
31
31
34
35
48
64
42
43
34
30
31
45
57
58
57
47
50
52
44
46
62
60
59
68
68
70
27
22
20
20
20
16
19
43
182
217
131
87
75
56
38
38
34
28
24
23
20
21
16
18
20
16
17
48
59
51
63
51
49
50
47
55
59
63
59
57
50
54
67
58
45
36
29
29
25
48
55
55
53
55
43
48
47
53
52
54
62
67
64
25
18
21
18
21
20
17
17
42
84
67
52
42
39
37
30
29
25
31
26
20
19
18
17
20
19
16
43
54
46
54
53
53
56
52
56
54
60
50
42
43
58
63
40
36
29
33
27
27
31
59
53
53
46
40
44
45
56
46
45
55
64
72
55
21
21
18
20
20
16
16
16
21
30
32
32
31
30
30
26
35
30
26
20
19
17
20
21
19
17
36
42
34
38
39
32
34
31
42
40
32
33
28
45
43
62
53
46
28
29
28
30
31
52
68
67
62
61
63
61
63
66
77
77
81
77
70
21
20
20
18
21
17
20
14
20
41
27
28
30
31
31
25
32
39
32
18
17
16
20
21
16
17
36
42
39
40
41
42
36
35
34
31
27
28
30
30
40
43
53
54
36
31
27
27
28
45
56
58
64
64
71
70
73
73
73
79
77
78
72
36
20
22
20
19
16
15
15
18
63
48
44
34
34
37
40
42
37
24
18
20
16
18
20
18
17
32
44
42
52
49
37
39
47
51
48
36
45
46
53
45
39
50
53
60
54
54
45
58
63
63
66
69
67
69
70
74
74
77
86
72
75
70
50
21
20
21
20
16
19
17
17
63
67
58
50
40
37
49
58
52
28
20
21
21
17
17
19
20
24
49
54
67
65
66
67
74
100
61
63
76
95
76
58
55
49
64
64
65
66
64
65
69
75
53
46
45
49
35
59
75
69
66
81
81
41
39
21
21
24
21
20
20
18
19
43
74
73
67
57
59
67
71
66
43
20
23
19
21
21
18
16
17
24
20
21
23
33
71
36
42
79
84
62
58
43
45
47
34
37
66
65
67
67
67
68
49
59
51
32
38
46
34
33
53
38
47
29
38
28
22
22
21
18
19
22
30
46
57
77
77
75
70
78
80
83
80
63
24
21
23
25
22
18
19
15
21
22
27
24
29
24
21
21
34
85
62
51
49
55
47
37
40
66
69
69
56
68
48
64
51
40
38
39
47
37
41
37
39
39
35
32
28
24
22
23
19
25
54
61
92
114
99
92
83
86
107
113
111
117
76
30
20
20
28
23
20
18
16
18
33
31
31
48
56
58
60
69
98
75
32
34
57
51
33
30
44
66
61
50
42
53
53
44
38
44
42
43
38
39
38
38
48
34
30
21
21
24
21
26
67
83
114
131
146
136
128
117
133
149
137
123
111
76
28
24
20
31
27
19
19
17
18
18
24
35
63
116
127
98
51
50
45
58
40
43
39
43
46
50
47
39
44
46
51
49
52
63
59
57
51
39
39
42
36
41
33
25
21
26
21
27
60
113
128
148
159
163
164
147
148
153
163
154
132
99
83
27
24
20
25
21
17
21
18
17
16
19
27
26
76
88
79
61
54
43
44
49
55
57
51
44
51
49
48
46
58
46
48
37
57
59
45
42
39
37
44
36
46
36
27
22
22
23
29
72
140
153
168
174
174
174
164
157
165
170
157
140
102
74
38
28
18
21
19
18
18
16
16
18
17
29
30
46
67
82
82
79
75
76
56
70
61
46
36
56
50
56
40
47
56
67
53
66
53
46
50
36
42
46
42
44
28
26
21
26
29
41
116
160
174
180
176
171
175
169
159
166
164
152
139
109
66
26
26
20
21
19
18
16
19
22
19
20
17
21
43
63
46
81
94
41
61
64
60
64
56
48
48
47
52
42
41
70
83
79
67
58
50
41
41
45
51
48
27
24
23
20
31
37
51
156
165
179
182
179
172
171
171
166
170
158
144
126
102
68
29
29
21
21
17
23
25
20
20
20
18
13
13
17
23
35
72
119
127
136
141
123
119
100
67
43
40
43
37
38
41
46
76
87
67
55
50
38
46
46
25
24
23
22
21
45
61
121
167
170
176
177
174
169
176
174
169
164
161
153
134
106
60
28
21
20
20
34
45
33
27
27
21
20
15
16
17
13
18
20
24
52
44
35
72
85
60
45
50
42
47
43
38
34
34
31
51
71
66
58
54
53
26
23
25
25
21
29
78
139
161
173
174
172
175
169
174
180
177
170
168
168
156
130
90
40
30
23
26
30
23
58
78
38
27
18
17
12
13
16
19
13
21
27
21
27
31
29
54
56
63
39
42
44
42
37
30
36
33
31
35
27
67
75
27
21
18
21
14
21
28
80
167
177
179
167
160
152
156
179
182
183
179
174
172
163
131
82
39
33
22
32
63
41
20
16
15
15
13
11
12
13
19
15
13
13
20
23
24
20
20
92
94
78
42
39
33
37
39
35
33
30
29
32
33
69
56
18
20
21
21
16
26
23
41
130
168
178
159
121
142
167
184
185
187
184
179
171
158
151
68
41
21
34
21
16
13
13
13
13
13
13
11
13
10
13
13
13
13
18
21
18
21
25
23
32
64
39
39
38
37
46
54
51
55
59
65
47
21
18
16
18
21
19
18
27
34
30
31
69
149
151
83
158
182
181
187
188
185
173
167
167
69
27
24
18
15
13
13
13
11
10
12
11
12
11
13
11
12
11
11
12
16
21
23
22
21
21
26
25
39
36
38
46
37
31
35
32
29
30
28
19
16
19
16
19
17
22
30
41
33
30
34
29
25
46
118
166
178
178
185
186
167
161
62
26
20
20
14
14
13
12
9
9
12
13
13
12
12
12
10
12
12
10
12
18
20
31
28
26
26
28
24
40
31
37
53
41
27
34
33
34
27
16
15
19
17
17
14
17
29
37
34
39
39
41
23
28
28
28
32
25
29
29
48
53
21
21
21
18
19
13
12
11
9
12
13
14
14
14
12
12
12
11
13
13
12
12
15
18
20
23
27
24
29
31
29
40
37
44
40
39
51
60
69
65
15
19
17
15
14
14
22
32
35
40
30
41
36
32
36
36
30
29
27
29
26
24
21
21
20
16
19
10
9
12
11
13
14
20
12
14
14
12
11
11
11
12
13
11
13
16
19
21
20
17
20
32
26
28
29
29
31
35
36
41
41
38
31
19
15
14
15
15
20
21
32
28
35
26
27
28
38
36
40
34
41
29
32
28
21
19
20
20
15
12
9
12
13
13
15
20
16
13
15
15
20
19
15
14
12
21
13
12
13
19
18
27
22
25
24
18
26
26
27
29
30
26
26
27
29
27
14
14
14
16
15
17
21
28
30
27
28
24
23
29
31
33
30
30
31
26
18
21
21
18
15
11
13
11
13
14
15
14
19
16
15
21
23
20
19
20
14
17
15
13
8
9
11
14
32
33
32
21
18
25
24
26
24
24
26
28
25
28
21
19
19
15
15
17
17
21
21
24
23
23
21
18
26
23
32
28
25
22
18
19
20
15
20
13
12
11
11
14
14
15
14
13
16
20
18
25
19
19
18
18
19
9
9
10
9
10
13
22
30
39
17
20
27
40
41
40
34
33
33
31
20
17
15
15
16
14
19
16
20
20
23
21
23
18
14
22
18
21
20
20
16
17
19
20
19
12
12
10
10
9
10
13
12
12
12
20
20
24
21
21
21
20
19
9
8
7
11
12
7
12
15
22
27
22
20
27
55
56
52
47
45
56
43
21
16
15
17
16
18
18
17
16
19
20
19
21
19
20
18
18
19
18
17
15
17
22
16
14
13
11
12
10
12
10
14
10
10
14
15
20
20
21
17
19
12
8
11
7
9
9
13
11
11
11
28
30
21
21
53
60
56
57
58
52
55
48
20
15
15
16
15
19
15
17
14
16
20
19
21
16
21
18
14
15
19
20
17
21
15
19
14
14
13
13
14
11
11
11
10
11
14
18
20
21
18
14
6
7
8
9
6
7
4
11
10
10
11
25
35
39
27
53
56
51
56
52
55
49
42
15
16
15
20
14
14
19
20
16
15
18
19
16
15
20
16
16
16
15
18
17
17
16
16
14
14
13
12
13
11
12
10
9
13
17
15
17
20
14
11
9
7
7
9
9
9
5
14
10
9
11
20
39
40
32
28
27
27
25
27
23
24
16
16
18
17
18
15
15
15
18
17
16
15
16
15
17
17
17
19
14
14
16
19
15
16
14
11
13
13
12
9
11
12
10
12
12
16
13
11
9
9
8
9
5
3
5
4
7
7
11
5
8
9
12
20
18
20
25
28
26
27
28
21
15
18
16
16
14
17
15
19
19
16
19
17
19
16
18
16
16
15
13
13
13
14
16
16
17
13
12
13
11
8
10
10
11
9
11
16
14
11
9
4
8
6
6
4
4
4
3
4
5
7
4
6
9
13
20
20
20
29
28
28
23
28
18
14
19
17
19
19
17
14
15
16
19
19
15
14
15
19
14
14
14
13
12
12
13
13
13
14
11
14
13
11
12
10
7
7
7
10
19
12
6
1
5
8
6
5
7
2
5
2
9
5
8
6
6
10
14
21
20
20
27
26
29
23
16
19
18
16
18
18
16
17
17
14
15
19
19
19
14
15
14
14
13
11
12
12
14
16
18
12
12
11
12
14
11
12
10
8
7
8
11
13
9
3
4
7
8
4
7
10
11
7
6
9
6
4
5
5
9
11
16
23
22
29
32
23
15
14
16
20
16
15
15
19
19
20
19
16
16
18
16
17
18
15
19
19
13
13
13
15
15
12
11
12
12
13
13
11
8
10
7
6
5
13
10
5
1
0
6
10
6
3
8
9
8
2
2
5
5
5
5
7
10
13
21
18
25
27
15
14
15
17
17
15
21
15
13
16
14
16
17
16
16
16
19
17
16
14
16
13
19
15
13
13
12
13
12
12
12
11
9
8
12
7
8
8
12
6
7
4
1
6
9
5
4
4
2
4
5
4
3
4
4
4
6
11
13
24
21
31
19
15
19
18
16
19
17
17
15
18
20
16
17
14
16
18
13
15
19
16
14
16
14
19
13
10
13
13
13
14
12
11
10
9
11
11
8
8
12
8
4
6
2
2
3
6
7
5
6
2
3
4
2
1
1
1
7
11
12
14
21
21
29
20
15
14
19
15
21
20
21
18
19
18
17
16
15
19
18
15
15
15
13
16
13
15
14
13
12
14
13
13
14
12
11
12
12
9
8
6
12
13
5
3
8
7
6
6
7
3
4
6
3
4
4
6
2
0
2
12
13
12
13
20
24
27
22
15
19
19
21
20
21
31
25
20
18
24
25
14
14
15
13
16
17
21
20
14
15
15
14
13
12
11
12
13
10
10
12
13
9
8
6
8
9
7
5
7
10
12
11
13
11
11
7
6
6
3
3
3
4
7
10
9
5
10
17
19
19
18
14
19
19
18
30
21
29
17
25
25
20
18
17
17
18
17
19
17
18
21
20
14
19
16
12
9
10
12
11
12
12
12
13
12
9
8
9
8
7
7
10
9
11
11
12
8
8
9
6
11
5
4
4
4
7
10
9
9
11
15
18
18
18
20
15
17
25
28
29
24
54
22
21
35
32
25
27
20
14
22
30
20
13
13
13
12
9
8
8
9
12
13
14
13
14
12
13
11
11
8
7
8
8
9
6
9
12
12
7
10
10
11
12
7
6
3
3
5
8
11
11
12
14
19
19
20
15
18
21
21
25
33
43
21
21
34
32
22
32
25
47
88
94
92
74
58
34
13
12
9
9
9
10
12
14
12
13
13
11
10
11
12
11
11
10
10
11
13
9
11
11
10
11
8
6
9
7
10
8
8
9
10
10
11
10
14
15
18
20
18
17
18
16
28
32
21
21
48
17
36
22
20
29
81
92
96
94
91
74
68
59
53
36
12
12
12
12
12
11
9
12
11
11
9
11
12
12
11
11
12
11
13
12
19
13
11
11
8
10
9
9
6
11
7
10
10
11
13
12
15
15
15
16
16
15
15
23
21
24
31
20
33
21
21
21
38
73
78
91
90
90
81
81
65
64
66
57
25
6
7
12
10
10
12
11
10
11
7
12
12
12
11
13
13
11
15
13
14
14
12
12
11
11
8
9
12
10
10
13
10
10
13
15
16
19
18
18
17
14
18
18
22
18
20
21
26
18
22
44
62
65
68
66
75
84
79
73
67
64
56
45
29
36
11
8
10
11
11
10
11
10
12
13
13
12
12
14
13
11
13
14
15
12
11
11
11
11
9
6
8
11
12
11
11
12
15
15
18
16
20
15
18
15
17
20
17
20
18
18
18
18
30
47
46
45
58
64
68
69
72
67
66
65
66
75
60
45
25
11
10
9
9
11
10
11
13
10
10
12
14
11
11
14
13
12
9
6
11
11
11
5
5
5
10
9
7
10
9
13
15
16
16
19
19
15
19
19
15
15
18
15
16
18
21
18
29
25
27
38
50
60
62
67
69
69
70
65
61
77
80
43
20
11
10
11
20
18
13
16
30
25
23
26
22
17
20
11
11
11
12
13
8
10
10
5
5
6
8
7
11
7
12
14
15
14
15
16
12
15
17
15
18
19
20
16
15
19
15
17
18
18
39
49
53
58
63
59
57
57
49
30
54
78
77
34
31
32
23
45
35
27
37
20
23
34
20
19
20
21
15
7
6
11
14
13
10
9
11
11
11
11
9
11
6
11
14
13
15
16
17
13
14
15
16
19
18
20
19
14
18
17
19
41
43
31
44
46
52
51
54
52
58
63
47
19
23
50
56
35
30
24
21
31
24
23
21
21
24
30
21
20
20
18
11
8
9
13
13
12
9
8
10
13
12
9
9
8
12
19
19
13
16
19
14
19
19
16
18
18
18
19
17
32
60
49
67
71
36
33
37
37
43
51
43
27
50
71
59
16
17
32
35
35
31
23
18
26
22
28
20
18
25
28
19
15
16
14
11
8
14
14
13
13
11
8
13
11
9
12
7
13
14
15
13
15
18
14
16
20
16
15
17
16
17
41
46
36
25
70
65
51
24
27
35
37
48
61
60
20
42
65
60
18
20
23
35
33
27
21
21
28
24
24
21
21
22
24
14
19
17
13
10
18
16
13
13
11
11
9
10
11
11
9
12
15
14
17
18
16
15
19
17
16
15
17
19
17
35
28
29
66
55
78
67
46
23
29
31
27
37
61
71
20
35
46
45
16
20
19
25
24
16
18
21
24
28
26
24
21
18
15
17
14
13
11
15
16
19
14
13
12
12
11
11
11
12
13
14
14
14
19
18
15
19
19
19
16
18
18
16
30
24
60
35
44
67
60
50
34
24
28
23
20
32
61
64
20
23
45
44
18
17
19
16
18
18
19
18
21
24
21
22
20
16
17
19
13
13
15
14
16
15
13
14
12
13
13
13
11
13
14
13
14
15
15
14
17
17
19
18
17
18
20
29
47
33
23
57
61
63
37
32
25
21
27
25
22
27
37
28
19
21
28
39
19
17
16
19
18
14
14
15
15
18
15
16
15
17
14
16
13
15
15
13
12
13
13
13
13
15
15
13
14
16
15
17
18
17
16
19
18
18
17
20
15
19
26
27
28
35
36
59
34
28
24
22
20
19
20
23
21
19
21
23
17
18
24
21
19
20
16
18
18
18
15
14
15
15
19
16
17
15
14
12
17
14
14
14
13
12
12
14
13
13
11
15
13
16
14
16
20
15
18
17
16
14
19
17
18
18
23
29
35
62
32
20
18
16
15
18
18
19
17
19
16
16
18
16
17
16
15
15
19
16
18
17
19
18
19
14
17
18
19
16
15
14
13
19
14
13
12
12
11
10
13
14
13
11
12
14
14
17
14
15
16
19
17
19
16
19
17
17
17
16
26
41
27
21
19
16
15
14
13
18
15
14
17
16
19
19
16
17
18
12
13
14
15
16
16
14
19
16
20
19
17
18
19
13
14
12
13
13
14
13
11
8
11
14
13
14
13
13
14
14
16
14
18
18
17
19
17
14
18
16
16
16
14
19
26
24
17
18
17
19
16
15
17
18
18
15
16
15
19
19
16
16
13
14
13
13
13
13
13
15
16
15
15
18
18
16
20
19
13
12
14
11
10
12
11
11
13
12
13
10
12
15
14
13
15
19
18
17
16
17
16
19
19
14
14
15
19
23
20
17
18
15
17
19
19
18
16
16
17
19
16
20
16
15
15
13
13
14
15
13
12
12
15
14
15
19
15
15
12
14
19
13
12
11
9
8
11
11
11
8
11
12
11
11
13
13
20
16
18
15
19
17
19
14
19
16
13
15
15
19
17
16
17
16
16
17
17
17
13
17
16
20
15
15
15
19
15
16
16
14
13
12
13
14
14
15
13
13
14
16
19
16
17
15
13
12
12
11
8
9
10
9
6
7
11
8
12
15
19
19
18
15
13
19
13
13
12
12
12
12
12
12
19
16
13
16
14
13
18
15
16
15
13
12
12
12
13
14
12
12
13
13
12
13
11
13
11
11
13
13
14
12
13
16
16
15
14
14
14
11
8
6
8
11
11
3
5
8
9
11
19
15
14
12
13
10
12
9
7
5
9
8
8
9
11
12
12
9
12
11
11
12
14
12
13
12
9
9
9
12
11
11
11
14
13
11
12
11
11
11
11
12
12
12
10
11
13
14
14
11
12
11
8
7
2
2
4
3
0
1
2
0
11
13
12
11
9
12
7
9
4
3
4
5
5
8
10
6
10
9
4
7
7
10
9
12
13
11
10
5
9
9
9
8
7
7
11
11
9
6
7
10
11
10
9
7
9
6
10
11
12
11
10
8
4
1
2
3
1
0
1
0
1
0
0
11
13
12
11
9
12
7
9
4
3
4
5
5
8
10
6
10
9
4
7
7
10
9
12
13
11
10
5
9
9
9
8
7
7
11
11
9
6
7
10
11
10
9
7
9
6
10
11
12
11
10
8
4
1
2
3
1
0
1
0
1
0
0
11
